<?xml version="1.0" encoding="UTF-8"?><svg id="Layer_2" xmlns="http://www.w3.org/2000/svg" width="200.76" height="44.05" xmlns:xlink="http://www.w3.org/1999/xlink" viewBox="0 0 200.76 44.05"><defs><style>.cls-1{clip-path:url(#clippath);}.cls-2{fill:none;}.cls-2,.cls-3,.cls-4,.cls-5{stroke-width:0px;}.cls-3{fill:#231f20;}.cls-4{fill:#00a4e4;}.cls-5{fill:#fff;}</style><clipPath id="clippath"><rect class="cls-2" width="200.76" height="44.05"/></clipPath></defs><g id="Layer_1-2"><g class="cls-1"><path class="cls-3" d="M39.53,17.39h-3.13c.09,1.62.11,1.8.11,2.48.02.55.04,3.2.04,3.77v1.4l-.02,3.53c0,.81-.15,3.46-.18,3.86h3.09c-.22-1.58-.22-3.44-.22-5.17,0-2.28.02-7.58.31-9.86"/><path class="cls-3" d="M43.12,17.39h3.11c-.24,1.62-.24,5.41-.24,7.62,0,3.27.04,5.63.22,7.41h-3.11c.24-2.61.24-6.22.24-9.97,0-1.38,0-2.94-.22-5.06"/><path class="cls-3" d="M57.34,17.21c1.8,0,3.37.31,5.13,1.1l-.66,2.15h-.22c-.26-.52-1.03-2.06-4.18-2.06-3.66,0-5.61,2.41-5.61,6.55,0,1.67.31,3.24,1.34,4.58.79,1.03,1.97,1.99,3.97,1.99,1.03,0,2.24-.22,3.11-.79.06-1.53.06-1.71.06-1.99,0-1.07-.06-2.15-.13-3.22h2.94c-.13.79-.17,3.09-.17,3.68,0,.83.02,1.38.06,1.99-1.86.99-4.25,1.53-6.35,1.53-4.27,0-7.82-2.65-7.82-7.58,0-4.4,2.69-7.93,8.54-7.93"/><path class="cls-3" d="M76.25,25.03c-1.18-.04-2.37-.09-3.55-.09-1.25,0-2.5.04-3.75.09v2.19c0,2.83.09,3.81.2,5.19h-3.07c.18-3.33.2-6.64.2-9.97,0-1.71-.07-3.38-.22-5.06h3.09c-.11,1.2-.2,2.15-.2,6.24,1.1.04,2.21.09,3.31.09,1.34,0,2.65-.04,3.99-.09,0-.57-.02-3.22-.04-3.77,0-.68-.02-.85-.11-2.48h3.13c-.29,2.28-.31,7.58-.31,9.86,0,1.73,0,3.59.22,5.17h-3.09c.02-.39.17-3.04.17-3.86l.02-3.53Z"/><path class="cls-3" d="M85.61,18.77c1.45,2.96,2.06,4.12,4.14,7.84l1.18,2.1.81-1.42c2.06-3.61,3.02-5.43,5.26-9.9h.94l.18,1.82c.24,2.58.53,4.99.88,7.62.18,1.32.64,4.49.88,5.59h-3.07l-.07-.81c-.04-.44-.15-2.39-.2-2.78-.11-1.01-.64-5.43-.7-6.35-1.47,2.5-3.92,6.97-5.21,9.95h-.85c-.83-1.66-1.38-2.59-3.02-5.76-.33-.64-1.88-3.4-2.19-3.97-.39,3.07-.77,6.44-.92,9.73h-1.93l.13-.68c.53-2.72,1.84-11.81,2.1-14.35h.99l.68,1.38Z"/><path class="cls-3" d="M110.83,29.99l-.92-2.32c-.94-.04-1.86-.09-2.81-.09-.88,0-1.75.04-2.63.09-.7,1.69-1.4,3.51-1.75,4.76h-2.04l2.54-5.65c2.21-4.95,3.49-7.8,4.01-9.6h1.42c1.05,3,2.37,6.07,3.16,7.91.83,1.91,2.28,5.21,3.26,7.34h-3.33l-.92-2.43ZM107.21,20.91l-2.24,5.39c.77.02,1.51.09,2.28.09.68,0,1.34-.04,2.02-.09l-2.06-5.39Z"/><path class="cls-3" d="M123.54,25.84c.33.46.81,1.18,1.14,1.64,1.73,2.43,2.32,3.2,3.7,4.93h-3.72c-.33-.5-.81-1.32-1.14-1.82-1.12-1.73-2.48-3.66-3.66-5.32h-.53v3.11c0,.64.09,3.46.09,4.03h-2.98c.18-4.32.2-4.8.2-9.03,0-2.87,0-3.18-.15-6h5.81c1.42,0,2.5.17,3.44,1.07.66.64,1.01,1.53,1.01,2.45,0,2.43-1.82,3.68-3.81,4.05l.61.88ZM119.33,24.24c.42.02.94.07,1.51.07,2.19,0,3-1.6,3-3.02,0-.92-.15-1.71-.92-2.28-.59-.44-1.32-.55-2.04-.55-.42,0-1.23.09-1.55.11v5.67Z"/><path class="cls-3" d="M130.11,17.39h3.07c-.15,1.07-.15,2.67-.17,3.46-.02,1.1-.02,2.35-.02,3.48,1.62-1.42,2.5-2.34,3.75-3.7.96-1.05,2.15-2.32,2.8-3.24h2.5c-1.12.94-2.65,2.41-3.57,3.31-1.09,1.07-1.45,1.4-3.04,3.15l1.16,1.53c1.12,1.47,4.27,5.63,5.81,7.03h-3.81c-1.56-2.19-3.27-4.6-5.59-7.16,0,2.41,0,4.84.2,7.16h-3.07c.2-3.7.2-3.94.2-9.97,0-2.5-.02-2.87-.2-5.06"/><path class="cls-3" d="M26.36,17.39c.15,1.69.22,3.35.22,5.06,0,.13,0,.26,0,.39.85.16,1.74.32,2.67.47,0-3.83.09-4.75.2-5.92h-3.09Z"/><path class="cls-3" d="M29.25,25.38c-.92-.11-1.82-.23-2.68-.36-.01,2.46-.06,4.92-.19,7.39h3.07c-.11-1.38-.2-2.37-.2-5.19v-1.84Z"/><path class="cls-4" d="M76.01,12.24c-10.07-.67-21.29-.8-31.62-.37-9.56.39-17.77,1.22-23.77,2.4-6.07,1.19-9.32,2.62-9.67,4.26-.2.97.58,1.89,2.33,2.75,3.8,1.85,12.05,3.4,23.25,4.36h.02s0-.6,0-.6v-.25c-8.79-.96-15.12-2.28-18.3-3.84-.98-.48-2.12-1.22-1.96-2,.49-2.31,10.96-5.22,32.8-6.12,8.78-.36,18.07-.33,26.89.1.19,0,.35-.14.36-.32,0-.19-.13-.34-.32-.36"/><path class="cls-5" d="M165.69,22.03c0,3.35-2.72,6.07-6.07,6.07s-6.07-2.72-6.07-6.07,2.72-6.07,6.07-6.07,6.07,2.72,6.07,6.07"/><path class="cls-5" d="M188.04,13.71l-.11-.27-.27.09c-1.59.55-2.51.71-3.39.85-.78.12-1.51.2-2.7.22-1.2-.02-1.92-.1-2.71-.22-.88-.14-1.8-.3-3.39-.85l-.27-.09-.11.27c-1.01,2.47-.96,5.86.14,9.07,1.27,3.71,3.14,6.29,5.9,8.08l.47.29.48-.33c2.72-1.79,4.58-4.36,5.84-8.04,1.09-3.22,1.14-6.61.13-9.07"/><path class="cls-4" d="M159.64,23.55s-.06.02-.08.04l-1.92,2.95c.61.27,1.29.42,2.01.42s1.39-.15,2.01-.42l-1.93-2.95s-.05-.04-.08-.04"/><path class="cls-4" d="M157.76,21.13l-2.91-.27c-.09.38-.14.77-.14,1.17,0,1.23.45,2.35,1.19,3.21l2.04-3.89c.05-.12.03-.21-.18-.22"/><path class="cls-4" d="M158.27,17.3c-.94.27-1.76.81-2.38,1.53h2.58s.07-.07.02-.12c-.27-.3-.51-.93-.22-1.41"/><path class="cls-4" d="M163.39,18.83c-.62-.72-1.44-1.26-2.38-1.53.29.48.06,1.11-.22,1.41-.05.05-.03.11.02.12h2.58Z"/><path class="cls-4" d="M161.52,21.13c-.21.02-.23.1-.18.22l2.04,3.89c.74-.86,1.19-1.98,1.19-3.21,0-.4-.05-.79-.14-1.17l-2.91.27Z"/><path class="cls-4" d="M163.18,26.54h0s-2.63-4.93-2.63-4.93c-.19-.42-.11-1.12.61-1.22l3.84-.37c.24.63.36,1.31.36,2.02,0,1.83-.85,3.45-2.19,4.5M162.79,26.82h0c-.9.59-1.98.94-3.14.94s-2.24-.35-3.15-.94h0s0,0,0,0c0,0,0,0,0,0l2.79-4.17c.21-.29.52-.27.71,0l2.79,4.17s0,0,0,0h0ZM153.92,22.03c0-.71.13-1.39.36-2.02l3.84.37c.72.1.8.8.61,1.22l-2.63,4.94h0c-1.34-1.06-2.19-2.68-2.19-4.51M159.64,16.31c2.29,0,4.28,1.35,5.19,3.3h-4.07c-.58-.01-.84-.35-.85-.63-.01-.33.04-.43.31-.78.29-.39.09-1.15-.57-1.16-.67.01-.87.77-.57,1.16.27.35.32.45.31.78-.01.28-.27.62-.85.63h-4.07c.91-1.95,2.89-3.3,5.19-3.3M164.24,17.39v-5.79h-9.24v5.79h-5.79v9.26h5.79v5.79h9.24v-5.79h5.8v-9.26h-5.8ZM167.73,32.35c-.57,0-.98-.41-.98-.98s.41-.97.98-.97.97.41.97.97-.41.98-.97.98M167.73,30.21c-.64,0-1.16.52-1.16,1.16s.52,1.16,1.16,1.16,1.16-.52,1.16-1.16-.52-1.16-1.16-1.16M167.7,31.28h-.24v-.43h.36c.16,0,.32.02.32.21,0,.25-.26.22-.44.22M168.33,31.07c0-.24-.12-.37-.46-.37h-.57v1.33h.17v-.59h.29l.37.59h.19l-.39-.59c.23-.02.41-.12.41-.37"/><path class="cls-4" d="M187.62,22.68c-1.1,3.23-2.82,6.1-6.05,8.1t0,0h0,0c-3.23-2-4.95-4.87-6.05-8.1-.98-2.87-1.22-6.24-.14-8.86,1.62.55,2.56.72,3.44.86.82.13,1.55.21,2.75.22h0c1.2-.02,1.93-.09,2.75-.22.88-.14,1.82-.31,3.44-.86,1.08,2.62.84,5.99-.14,8.86M188.66,11.61c-2.24,1.13-4.48,1.74-7.1,1.75-2.62,0-4.86-.63-7.1-1.76-1.47,2.9-1.7,7.6-.43,11.53,1.23,3.79,3.61,7.24,7.53,9.4,3.93-2.17,6.31-5.62,7.53-9.4,1.27-3.93,1.04-8.63-.43-11.52"/><path class="cls-4" d="M187.41,32.36c-.56,0-.96-.4-.96-.96s.4-.95.96-.95.95.4.95.95-.4.96-.95.96M187.41,30.26c-.63,0-1.14.51-1.14,1.13s.51,1.14,1.14,1.14,1.13-.51,1.13-1.14-.51-1.13-1.13-1.13"/><path class="cls-4" d="M187.38,31.31h-.23v-.42h.36c.16,0,.31.02.31.21,0,.24-.25.21-.44.21M188,31.1c0-.23-.12-.36-.45-.36h-.56v1.3h.17v-.58h.28l.37.58h.19l-.39-.58c.23-.02.4-.11.4-.36"/><path class="cls-4" d="M180.49,17.26c.11.08.09.22.24.19.08-.01.13-.06.2-.11,0,0,.09,0,.11.01-.17-.18-.52-.18-.75-.18.06.11.12.05.19.1"/><path class="cls-4" d="M183.88,17.62c-.05.16-.09.16-.19.26-.22.2-.51.41-.8.68-.18.17-.36.28-.49.49-.03.05-.1.18-.1.18-.49-.1-.98-.11-1.36-.18l-.02-.41s.49,0,.53-.3c0-.02-.01-.1-.07-.15-.07-.05-.21-.1-.25-.11.37.06.69.19,1.07.36.02-.04-.04-.18-.07-.21-.05-.06-.11-.1-.24-.14-.23-.06-.78-.13-.78-.13,0,0,.2,0,.47-.02.12-.02.24-.07.26-.1.03-.06,0-.15-.09-.24-.05-.06-.11-.11-.15-.17-.06-.08-.13-.23-.23-.32-.12-.15-.49-.29-.49-.29,0,0-.03-.25.03-.37.04-.09.24-.1.31-.07.28.15.59.33.96.39.08.06.08.08.1.19.05.25-.04.61,0,.78.02.06.08.05.12.03.34-.18.58-.51.93-.65.16-.07.63.16.52.51M182.35,22.36s.04-.73.05-1.09c.19-.08.24-.27.16-.42-.04-.09-.19-.15-.27-.17-.4-.1-.77-.12-1.19-.17-.36-.04-.65-.09-.99-.17-.69-.17-1.27-.49-1.57-1.11-.38-.77-.04-1.73.7-2.11.56-.29,1.19-.24,1.75-.02.2.08.3.25.42.41.06.07.14.1.18.19.03.05-.04.07-.06.08-.12.03-.54.04-.67.02-.17-.02-.45-.01-.62.02.18.1.37.22.54.29.11.04.19.04.29.09.04.02.16.05.16.11-.01.05-.11.08-.18.1-.16.04-.38.05-.58,0-.32-.08-.47-.26-.67-.15-.13.08-.14.26-.09.44.07.29.37.4.62.49.88.28,1.82.12,2.68.57.33.17.71.52.78.89.29,1.53-1.44,1.72-1.44,1.72M180.96,20.83s.18.02.6.05c.32.02.54.11.54.11l-.04,1.55c-.35-.07-.57-.1-.89-.15-.11-.56-.24-.75-.47-1.16-.05-.09,0-.13,0-.15.03-.06.26-.11.26-.11v-.13ZM183.31,24.2c-.06.25-.22.45-.48.61-.28.16-.57.18-.57.18l.02-.85s.06-.01.11-.07c.04-.05.05-.09.04-.16,0-.05-.05-.11-.12-.15-.08-.04-.21-.05-.27-.05-.42-.05-.81-.1-1.21-.16-.74-.12-1.27-.55-1.22-1.25.03-.48.53-.62.88-.77.11.21.22.42.26.53.07.19.1.31.1.31,0,0-.16.03-.15.16.01.11.14.16.22.18.52.07,1.21.16,1.57.28.24.08.48.22.62.41.21.29.25.52.19.81M181.27,23.89c.34.04.46.05.75.09l-.03,1.4-.32-.17-.32-.15-.07-1.16ZM182.57,27.22c-.18.15-.4.2-.4.2l.02-.6s.07-.06.05-.14c-.03-.12-.46-.41-.69-.49-.23-.09-.54-.18-.76-.28-.52-.22-.7-.67-.49-1.17.08-.18.28-.3.4-.37.12-.07.3-.13.3-.13l.05.7s-.07.02-.09.09c-.04.12.07.19.1.2.34.15.83.35,1.18.56.46.27.61.47.62.79,0,.29-.12.48-.3.62M181.91,28.74c0,.11-.04.2-.25.2-.17,0-.25-.06-.26-.24-.03-.81-.06-2.32-.06-2.32,0,0,.23.07.34.13.03.02.15.09.25.2.02.03.04.04.04.09-.01.59-.05,1.68-.05,1.93M181.02,28.07c-.03.21.06.3.04.4-.04.16-.14.11-.2,0-.08-.16-.14-.24-.16-.49-.04-.39.16-.58.25-.67.1-.1.19-.15.19-.15l.03.66s-.11.04-.14.25M184.37,15.43c-.94.13-1.88.22-2.8.23h0c-.92,0-1.86-.1-2.8-.23-.94-.13-1.86-.34-2.84-.6-.68,1.94-.54,4.39-.01,6.56.99,4.1,3.46,7.22,5.65,8.59,2.18-1.37,4.66-4.49,5.65-8.59.53-2.18.67-4.62-.01-6.56-.98.26-1.89.48-2.84.6"/><path class="cls-3" d="M144.73,32.35c-.57,0-.98-.41-.98-.98s.41-.97.98-.97.97.41.97.97-.41.98-.97.98M144.73,30.21c-.64,0-1.16.52-1.16,1.16s.52,1.16,1.16,1.16,1.16-.52,1.16-1.16-.52-1.16-1.16-1.16"/><path class="cls-3" d="M144.7,31.28h-.24v-.43h.37c.16,0,.32.02.32.21,0,.25-.26.22-.45.22M145.33,31.07c0-.24-.12-.37-.46-.37h-.57v1.33h.17v-.59h.29l.37.59h.19l-.39-.59c.23-.02.41-.12.41-.37"/></g></g></svg>